{
    "asset" : {
        "generator" : "Khronos glTF Blender I/O v3.2.40",
        "version" : "2.0"
    },
    "scene" : 0,
    "scenes" : [
        {
            "name" : "Scene",
            "nodes" : [
                0,
                1,
                2
            ]
        }
    ],
    "nodes" : [
        {
            "mesh" : 0,
            "name" : "Torus",
            "scale" : [
                1.9518897533416748,
                2.3967976570129395,
                2.3159403800964355
            ],
            "translation" : [
                0,
                0.5959444642066956,
                0
            ]
        },
        {
            "mesh" : 1,
            "name" : "Torus.001",
            "rotation" : [
                0.3075403571128845,
                -0.0900416448712349,
                -0.26616689562797546,
                0.9091020822525024
            ],
            "scale" : [
                1.9518897533416748,
                2.3967976570129395,
                2.3159403800964355
            ],
            "translation" : [
                -0.33294159173965454,
                2.035216808319092,
                -5.824326992034912
            ]
        },
        {
            "mesh" : 2,
            "name" : "Torus.002",
            "rotation" : [
                0,
                0,
                -0.5852714776992798,
                0.81083744764328
            ],
            "scale" : [
                1.9518896341323853,
                2.3967974185943604,
                2.3159403800964355
            ],
            "translation" : [
                -4.397680282592773,
                2.2724015712738037,
                0
            ]
        }
    ],
    "materials" : [
        {
            "doubleSided" : true,
            "name" : "Material.001",
            "pbrMetallicRoughness" : {
                "baseColorFactor" : [
                    0.8000000715255737,
                    0.0466097816824913,
                    0.10955095291137695,
                    1
                ],
                "metallicFactor" : 0,
                "roughnessFactor" : 0.18807338178157806
            }
        }
    ],
    "meshes" : [
        {
            "name" : "Torus",
            "primitives" : [
                {
                    "attributes" : {
                        "POSITION" : 0,
                        "NORMAL" : 1,
                        "TEXCOORD_0" : 2
                    },
                    "indices" : 3,
                    "material" : 0
                }
            ]
        },
        {
            "name" : "Torus.002",
            "primitives" : [
                {
                    "attributes" : {
                        "POSITION" : 4,
                        "NORMAL" : 5,
                        "TEXCOORD_0" : 6
                    },
                    "indices" : 3,
                    "material" : 0
                }
            ]
        },
        {
            "name" : "Torus.003",
            "primitives" : [
                {
                    "attributes" : {
                        "POSITION" : 7,
                        "NORMAL" : 8,
                        "TEXCOORD_0" : 9
                    },
                    "indices" : 3,
                    "material" : 0
                }
            ]
        }
    ],
    "accessors" : [
        {
            "bufferView" : 0,
            "componentType" : 5126,
            "count" : 1372,
            "max" : [
                1.3146175146102905,
                0.4674348533153534,
                1.3052440881729126
            ],
            "min" : [
                -1.3146175146102905,
                -0.25,
                -1.3052440881729126
            ],
            "type" : "VEC3"
        },
        {
            "bufferView" : 1,
            "componentType" : 5126,
            "count" : 1372,
            "type" : "VEC3"
        },
        {
            "bufferView" : 2,
            "componentType" : 5126,
            "count" : 1372,
            "type" : "VEC2"
        },
        {
            "bufferView" : 3,
            "componentType" : 5123,
            "count" : 7194,
            "type" : "SCALAR"
        },
        {
            "bufferView" : 4,
            "componentType" : 5126,
            "count" : 1372,
            "max" : [
                1.3146175146102905,
                0.4674348533153534,
                1.3052440881729126
            ],
            "min" : [
                -1.3146175146102905,
                -0.25,
                -1.3052440881729126
            ],
            "type" : "VEC3"
        },
        {
            "bufferView" : 5,
            "componentType" : 5126,
            "count" : 1372,
            "type" : "VEC3"
        },
        {
            "bufferView" : 6,
            "componentType" : 5126,
            "count" : 1372,
            "type" : "VEC2"
        },
        {
            "bufferView" : 7,
            "componentType" : 5126,
            "count" : 1372,
            "max" : [
                1.3146175146102905,
                0.4674348533153534,
                1.3052440881729126
            ],
            "min" : [
                -1.3146175146102905,
                -0.25,
                -1.3052440881729126
            ],
            "type" : "VEC3"
        },
        {
            "bufferView" : 8,
            "componentType" : 5126,
            "count" : 1372,
            "type" : "VEC3"
        },
        {
            "bufferView" : 9,
            "componentType" : 5126,
            "count" : 1372,
            "type" : "VEC2"
        }
    ],
    "bufferViews" : [
        {
            "buffer" : 0,
            "byteLength" : 16464,
            "byteOffset" : 0
        },
        {
            "buffer" : 0,
            "byteLength" : 16464,
            "byteOffset" : 16464
        },
        {
            "buffer" : 0,
            "byteLength" : 10976,
            "byteOffset" : 32928
        },
        {
            "buffer" : 0,
            "byteLength" : 14388,
            "byteOffset" : 43904
        },
        {
            "buffer" : 0,
            "byteLength" : 16464,
            "byteOffset" : 58292
        },
        {
            "buffer" : 0,
            "byteLength" : 16464,
            "byteOffset" : 74756
        },
        {
            "buffer" : 0,
            "byteLength" : 10976,
            "byteOffset" : 91220
        },
        {
            "buffer" : 0,
            "byteLength" : 16464,
            "byteOffset" : 102196
        },
        {
            "buffer" : 0,
            "byteLength" : 16464,
            "byteOffset" : 118660
        },
        {
            "buffer" : 0,
            "byteLength" : 10976,
            "byteOffset" : 135124
        }
    ],
    "buffers" : [
        {
            "byteLength" : 146100,
            "uri" : "data:application/octet-stream;base64,"
        }
    ]
}
