{
    "asset" : {
        "generator" : "Khronos glTF Blender I/O v3.2.40",
        "version" : "2.0"
    },
    "scene" : 0,
    "scenes" : [
        {
            "name" : "Scene",
            "nodes" : [
                0
            ]
        }
    ],
    "nodes" : [
        {
            "mesh" : 0,
            "name" : "Circle.035",
            "rotation" : [
                -0.004634453449398279,
                -0.9978482127189636,
                0.00030375728965736926,
                0.06540224701166153
            ],
            "scale" : [
                0.13607726991176605,
                1,
                3.4197254180908203
            ],
            "translation" : [
                -1.4485979080200195,
                -0.022685229778289795,
                0.11778062582015991
            ]
        }
    ],
    "materials" : [
        {
            "doubleSided" : true,
            "name" : "strips",
            "pbrMetallicRoughness" : {
                "baseColorFactor" : [
                    0.6394715905189514,
                    0.6730771064758301,
                    0.061539798974990845,
                    1
                ],
                "metallicFactor" : 0,
                "roughnessFactor" : 0.5
            }
        },
        {
            "doubleSided" : true,
            "name" : "cube",
            "pbrMetallicRoughness" : {
                "baseColorFactor" : [
                    1,
                    0.9623635411262512,
                    0.3337222933769226,
                    1
                ],
                "metallicFactor" : 0,
                "roughnessFactor" : 0.5
            }
        },
        {
            "doubleSided" : true,
            "name" : "Small cells",
            "pbrMetallicRoughness" : {
                "baseColorFactor" : [
                    0.12621845304965973,
                    0.046837352216243744,
                    0.009371821768581867,
                    1
                ],
                "metallicFactor" : 0,
                "roughnessFactor" : 0.5
            }
        },
        {
            "doubleSided" : true,
            "name" : "Small cell",
            "pbrMetallicRoughness" : {
                "baseColorFactor" : [
                    0.8000000715255737,
                    0.38261303305625916,
                    0.10922335833311081,
                    1
                ],
                "metallicFactor" : 0,
                "roughnessFactor" : 0.5
            }
        },
        {
            "doubleSided" : true,
            "name" : "Dark",
            "pbrMetallicRoughness" : {
                "baseColorFactor" : [
                    0.005970364902168512,
                    0.05582413077354431,
                    0.008238227106630802,
                    1
                ],
                "metallicFactor" : 0,
                "roughnessFactor" : 0.5
            }
        },
        {
            "doubleSided" : true,
            "name" : "Light",
            "pbrMetallicRoughness" : {
                "baseColorFactor" : [
                    0.08506385236978531,
                    0.28720739483833313,
                    0.3111017942428589,
                    1
                ],
                "metallicFactor" : 0,
                "roughnessFactor" : 0.5
            }
        }
    ],
    "meshes" : [
        {
            "name" : "Circle.036",
            "primitives" : [
                {
                    "attributes" : {
                        "POSITION" : 0,
                        "NORMAL" : 1,
                        "TEXCOORD_0" : 2
                    },
                    "indices" : 3,
                    "material" : 0
                },
                {
                    "attributes" : {
                        "POSITION" : 4,
                        "NORMAL" : 5,
                        "TEXCOORD_0" : 6
                    },
                    "indices" : 7,
                    "material" : 1
                },
                {
                    "attributes" : {
                        "POSITION" : 8,
                        "NORMAL" : 9,
                        "TEXCOORD_0" : 10
                    },
                    "indices" : 11,
                    "material" : 2
                },
                {
                    "attributes" : {
                        "POSITION" : 12,
                        "NORMAL" : 13,
                        "TEXCOORD_0" : 14
                    },
                    "indices" : 15,
                    "material" : 3
                },
                {
                    "attributes" : {
                        "POSITION" : 16,
                        "NORMAL" : 17,
                        "TEXCOORD_0" : 18
                    },
                    "indices" : 19,
                    "material" : 4
                },
                {
                    "attributes" : {
                        "POSITION" : 20,
                        "NORMAL" : 21,
                        "TEXCOORD_0" : 22
                    },
                    "indices" : 23,
                    "material" : 5
                }
            ]
        }
    ],
    "accessors" : [
        {
            "bufferView" : 0,
            "componentType" : 5126,
            "count" : 788,
            "max" : [
                6.13710355758667,
                3.7430567741394043,
                0.8807311654090881
            ],
            "min" : [
                -26.947826385498047,
                -0.0002536713145673275,
                -0.9286462068557739
            ],
            "type" : "VEC3"
        },
        {
            "bufferView" : 1,
            "componentType" : 5126,
            "count" : 788,
            "type" : "VEC3"
        },
        {
            "bufferView" : 2,
            "componentType" : 5126,
            "count" : 788,
            "type" : "VEC2"
        },
        {
            "bufferView" : 3,
            "componentType" : 5123,
            "count" : 2292,
            "type" : "SCALAR"
        },
        {
            "bufferView" : 4,
            "componentType" : 5126,
            "count" : 48,
            "max" : [
                6.179499626159668,
                3.7332327365875244,
                0.8803789615631104
            ],
            "min" : [
                -26.893861770629883,
                0.016896963119506836,
                -0.9282932281494141
            ],
            "type" : "VEC3"
        },
        {
            "bufferView" : 5,
            "componentType" : 5126,
            "count" : 48,
            "type" : "VEC3"
        },
        {
            "bufferView" : 6,
            "componentType" : 5126,
            "count" : 48,
            "type" : "VEC2"
        },
        {
            "bufferView" : 7,
            "componentType" : 5123,
            "count" : 72,
            "type" : "SCALAR"
        },
        {
            "bufferView" : 8,
            "componentType" : 5126,
            "count" : 916,
            "max" : [
                4.904370307922363,
                3.7440035343170166,
                0.8696295022964478
            ],
            "min" : [
                -25.907825469970703,
                -0.01664349064230919,
                -0.9170665144920349
            ],
            "type" : "VEC3"
        },
        {
            "bufferView" : 9,
            "componentType" : 5126,
            "count" : 916,
            "type" : "VEC3"
        },
        {
            "bufferView" : 10,
            "componentType" : 5126,
            "count" : 916,
            "type" : "VEC2"
        },
        {
            "bufferView" : 11,
            "componentType" : 5123,
            "count" : 2052,
            "type" : "SCALAR"
        },
        {
            "bufferView" : 12,
            "componentType" : 5126,
            "count" : 516,
            "max" : [
                5.644168853759766,
                3.7355353832244873,
                0.8722375631332397
            ],
            "min" : [
                -26.18500328063965,
                0.005040289368480444,
                -0.9198085069656372
            ],
            "type" : "VEC3"
        },
        {
            "bufferView" : 13,
            "componentType" : 5126,
            "count" : 516,
            "type" : "VEC3"
        },
        {
            "bufferView" : 14,
            "componentType" : 5126,
            "count" : 516,
            "type" : "VEC2"
        },
        {
            "bufferView" : 15,
            "componentType" : 5123,
            "count" : 1440,
            "type" : "SCALAR"
        },
        {
            "bufferView" : 16,
            "componentType" : 5126,
            "count" : 4092,
            "max" : [
                6.091836452484131,
                3.7567496299743652,
                0.8320401906967163
            ],
            "min" : [
                -26.55921173095703,
                0.017062056809663773,
                -0.8782482147216797
            ],
            "type" : "VEC3"
        },
        {
            "bufferView" : 17,
            "componentType" : 5126,
            "count" : 4092,
            "type" : "VEC3"
        },
        {
            "bufferView" : 18,
            "componentType" : 5126,
            "count" : 4092,
            "type" : "VEC2"
        },
        {
            "bufferView" : 19,
            "componentType" : 5123,
            "count" : 6348,
            "type" : "SCALAR"
        },
        {
            "bufferView" : 20,
            "componentType" : 5126,
            "count" : 630,
            "max" : [
                5.861258506774902,
                3.75128173828125,
                0.8373816609382629
            ],
            "min" : [
                -26.50248908996582,
                0.02069714665412903,
                -0.8838126063346863
            ],
            "type" : "VEC3"
        },
        {
            "bufferView" : 21,
            "componentType" : 5126,
            "count" : 630,
            "type" : "VEC3"
        },
        {
            "bufferView" : 22,
            "componentType" : 5126,
            "count" : 630,
            "type" : "VEC2"
        },
        {
            "bufferView" : 23,
            "componentType" : 5123,
            "count" : 1818,
            "type" : "SCALAR"
        }
    ],
    "bufferViews" : [
        {
            "buffer" : 0,
            "byteLength" : 9456,
            "byteOffset" : 0
        },
        {
            "buffer" : 0,
            "byteLength" : 9456,
            "byteOffset" : 9456
        },
        {
            "buffer" : 0,
            "byteLength" : 6304,
            "byteOffset" : 18912
        },
        {
            "buffer" : 0,
            "byteLength" : 4584,
            "byteOffset" : 25216
        },
        {
            "buffer" : 0,
            "byteLength" : 576,
            "byteOffset" : 29800
        },
        {
            "buffer" : 0,
            "byteLength" : 576,
            "byteOffset" : 30376
        },
        {
            "buffer" : 0,
            "byteLength" : 384,
            "byteOffset" : 30952
        },
        {
            "buffer" : 0,
            "byteLength" : 144,
            "byteOffset" : 31336
        },
        {
            "buffer" : 0,
            "byteLength" : 10992,
            "byteOffset" : 31480
        },
        {
            "buffer" : 0,
            "byteLength" : 10992,
            "byteOffset" : 42472
        },
        {
            "buffer" : 0,
            "byteLength" : 7328,
            "byteOffset" : 53464
        },
        {
            "buffer" : 0,
            "byteLength" : 4104,
            "byteOffset" : 60792
        },
        {
            "buffer" : 0,
            "byteLength" : 6192,
            "byteOffset" : 64896
        },
        {
            "buffer" : 0,
            "byteLength" : 6192,
            "byteOffset" : 71088
        },
        {
            "buffer" : 0,
            "byteLength" : 4128,
            "byteOffset" : 77280
        },
        {
            "buffer" : 0,
            "byteLength" : 2880,
            "byteOffset" : 81408
        },
        {
            "buffer" : 0,
            "byteLength" : 49104,
            "byteOffset" : 84288
        },
        {
            "buffer" : 0,
            "byteLength" : 49104,
            "byteOffset" : 133392
        },
        {
            "buffer" : 0,
            "byteLength" : 32736,
            "byteOffset" : 182496
        },
        {
            "buffer" : 0,
            "byteLength" : 12696,
            "byteOffset" : 215232
        },
        {
            "buffer" : 0,
            "byteLength" : 7560,
            "byteOffset" : 227928
        },
        {
            "buffer" : 0,
            "byteLength" : 7560,
            "byteOffset" : 235488
        },
        {
            "buffer" : 0,
            "byteLength" : 5040,
            "byteOffset" : 243048
        },
        {
            "buffer" : 0,
            "byteLength" : 3636,
            "byteOffset" : 248088
        }
    ],
    "buffers" : [
        {
            "byteLength" : 251724,
            "uri" : "data:application/octet-stream;base64,"
        }
    ]
}
