{
    "asset" : {
        "generator" : "Khronos glTF Blender I/O v3.2.40",
        "version" : "2.0"
    },
    "scene" : 0,
    "scenes" : [
        {
            "name" : "Scene",
            "nodes" : [
                0
            ]
        }
    ],
    "nodes" : [
        {
            "mesh" : 0,
            "name" : "Cube.015",
            "rotation" : [
                0,
                -0.7078801989555359,
                0,
                0.7063325643539429
            ],
            "scale" : [
                1,
                1.399999976158142,
                1
            ],
            "translation" : [
                -0.987642765045166,
                1.6996064186096191,
                2.974278211593628
            ]
        }
    ],
    "materials" : [
        {
            "doubleSided" : true,
            "name" : "Material.003",
            "pbrMetallicRoughness" : {
                "baseColorFactor" : [
                    0.49584683775901794,
                    0.07401281595230103,
                    0.10521990060806274,
                    1
                ],
                "metallicFactor" : 0.35779815912246704,
                "roughnessFactor" : 0.71100914478302
            }
        },
        {
            "doubleSided" : true,
            "name" : "Material.001",
            "pbrMetallicRoughness" : {
                "baseColorFactor" : [
                    0.57921302318573,
                    0.10309820622205734,
                    0.8000000715255737,
                    1
                ],
                "metallicFactor" : 0,
                "roughnessFactor" : 0.5
            }
        },
        {
            "doubleSided" : true,
            "name" : "Material.002",
            "pbrMetallicRoughness" : {
                "baseColorFactor" : [
                    0.7415519952774048,
                    0.8000000715255737,
                    0.20697122812271118,
                    1
                ],
                "metallicFactor" : 0.14678898453712463,
                "roughnessFactor" : 0.5458715558052063
            }
        }
    ],
    "meshes" : [
        {
            "name" : "Cube.019",
            "primitives" : [
                {
                    "attributes" : {
                        "POSITION" : 0,
                        "NORMAL" : 1,
                        "TEXCOORD_0" : 2
                    },
                    "indices" : 3,
                    "material" : 0
                },
                {
                    "attributes" : {
                        "POSITION" : 4,
                        "NORMAL" : 5,
                        "TEXCOORD_0" : 6
                    },
                    "indices" : 7,
                    "material" : 1
                },
                {
                    "attributes" : {
                        "POSITION" : 8,
                        "NORMAL" : 9,
                        "TEXCOORD_0" : 10
                    },
                    "indices" : 11,
                    "material" : 2
                }
            ]
        }
    ],
    "accessors" : [
        {
            "bufferView" : 0,
            "componentType" : 5126,
            "count" : 3360,
            "max" : [
                1.0026562213897705,
                4.1794328689575195,
                3.0088415145874023
            ],
            "min" : [
                -6.9766340255737305,
                -1,
                -4.973287582397461
            ],
            "type" : "VEC3"
        },
        {
            "bufferView" : 1,
            "componentType" : 5126,
            "count" : 3360,
            "type" : "VEC3"
        },
        {
            "bufferView" : 2,
            "componentType" : 5126,
            "count" : 3360,
            "type" : "VEC2"
        },
        {
            "bufferView" : 3,
            "componentType" : 5123,
            "count" : 15360,
            "type" : "SCALAR"
        },
        {
            "bufferView" : 4,
            "componentType" : 5126,
            "count" : 4160,
            "max" : [
                1.0702117681503296,
                1.9257413148880005,
                3.07826566696167
            ],
            "min" : [
                -7.063762664794922,
                0.11168861389160156,
                -5.073091983795166
            ],
            "type" : "VEC3"
        },
        {
            "bufferView" : 5,
            "componentType" : 5126,
            "count" : 4160,
            "type" : "VEC3"
        },
        {
            "bufferView" : 6,
            "componentType" : 5126,
            "count" : 4160,
            "type" : "VEC2"
        },
        {
            "bufferView" : 7,
            "componentType" : 5123,
            "count" : 11904,
            "type" : "SCALAR"
        },
        {
            "bufferView" : 8,
            "componentType" : 5126,
            "count" : 224,
            "max" : [
                1.0116331577301025,
                -1.0164738893508911,
                3.004944324493408
            ],
            "min" : [
                -6.97138786315918,
                -1.2141989469528198,
                -4.9800896644592285
            ],
            "type" : "VEC3"
        },
        {
            "bufferView" : 9,
            "componentType" : 5126,
            "count" : 224,
            "type" : "VEC3"
        },
        {
            "bufferView" : 10,
            "componentType" : 5126,
            "count" : 224,
            "type" : "VEC2"
        },
        {
            "bufferView" : 11,
            "componentType" : 5123,
            "count" : 576,
            "type" : "SCALAR"
        }
    ],
    "bufferViews" : [
        {
            "buffer" : 0,
            "byteLength" : 40320,
            "byteOffset" : 0
        },
        {
            "buffer" : 0,
            "byteLength" : 40320,
            "byteOffset" : 40320
        },
        {
            "buffer" : 0,
            "byteLength" : 26880,
            "byteOffset" : 80640
        },
        {
            "buffer" : 0,
            "byteLength" : 30720,
            "byteOffset" : 107520
        },
        {
            "buffer" : 0,
            "byteLength" : 49920,
            "byteOffset" : 138240
        },
        {
            "buffer" : 0,
            "byteLength" : 49920,
            "byteOffset" : 188160
        },
        {
            "buffer" : 0,
            "byteLength" : 33280,
            "byteOffset" : 238080
        },
        {
            "buffer" : 0,
            "byteLength" : 23808,
            "byteOffset" : 271360
        },
        {
            "buffer" : 0,
            "byteLength" : 2688,
            "byteOffset" : 295168
        },
        {
            "buffer" : 0,
            "byteLength" : 2688,
            "byteOffset" : 297856
        },
        {
            "buffer" : 0,
            "byteLength" : 1792,
            "byteOffset" : 300544
        },
        {
            "buffer" : 0,
            "byteLength" : 1152,
            "byteOffset" : 302336
        }
    ],
    "buffers" : [
        {
            "byteLength" : 303488,
            "uri" : "data:application/octet-stream;base64,"
        }
    ]
}
