{
    "asset" : {
        "generator" : "Khronos glTF Blender I/O v3.2.40",
        "version" : "2.0"
    },
    "scene" : 0,
    "scenes" : [
        {
            "name" : "Scene",
            "nodes" : [
                0,
                1
            ]
        }
    ],
    "nodes" : [
        {
            "mesh" : 0,
            "name" : "Sphere.006",
            "rotation" : [
                0.28586846590042114,
                -0.2536351680755615,
                -0.691240131855011,
                0.6132988929748535
            ],
            "scale" : [
                0.16921697556972504,
                0.0813136175274849,
                0.1516362577676773
            ],
            "translation" : [
                0.22359341382980347,
                0.4950122833251953,
                -0.7988181710243225
            ]
        },
        {
            "name" : "Empty",
            "rotation" : [
                0,
                -0.38216695189476013,
                0,
                0.9240933060646057
            ],
            "scale" : [
                0.46246108412742615,
                0.5302686095237732,
                0.2602826952934265
            ],
            "translation" : [
                -0.46552133560180664,
                0.6070490479469299,
                0.24718457460403442
            ]
        }
    ],
    "materials" : [
        {
            "doubleSided" : true,
            "name" : "Material.001",
            "pbrMetallicRoughness" : {
                "baseColorFactor" : [
                    0.07468397915363312,
                    0.05433298647403717,
                    0.2115667760372162,
                    1
                ],
                "metallicFactor" : 0,
                "roughnessFactor" : 0.6467889547348022
            }
        },
        {
            "doubleSided" : true,
            "name" : "Material.002",
            "pbrMetallicRoughness" : {
                "baseColorFactor" : [
                    0.009429043158888817,
                    0.010123402811586857,
                    0.04720687493681908,
                    1
                ],
                "metallicFactor" : 0,
                "roughnessFactor" : 0.6926605701446533
            }
        }
    ],
    "meshes" : [
        {
            "name" : "Sphere.015",
            "primitives" : [
                {
                    "attributes" : {
                        "POSITION" : 0,
                        "NORMAL" : 1,
                        "TEXCOORD_0" : 2
                    },
                    "indices" : 3,
                    "material" : 0
                },
                {
                    "attributes" : {
                        "POSITION" : 4,
                        "NORMAL" : 5,
                        "TEXCOORD_0" : 6
                    },
                    "indices" : 7,
                    "material" : 1
                }
            ]
        }
    ],
    "accessors" : [
        {
            "bufferView" : 0,
            "componentType" : 5126,
            "count" : 51650,
            "max" : [
                1.9073492288589478,
                8.36281681060791,
                13.472512245178223
            ],
            "min" : [
                -3.2707691192626953,
                -2.807800531387329,
                -3.7580478191375732
            ],
            "type" : "VEC3"
        },
        {
            "bufferView" : 1,
            "componentType" : 5126,
            "count" : 51650,
            "type" : "VEC3"
        },
        {
            "bufferView" : 2,
            "componentType" : 5126,
            "count" : 51650,
            "type" : "VEC2"
        },
        {
            "bufferView" : 3,
            "componentType" : 5123,
            "count" : 227160,
            "type" : "SCALAR"
        },
        {
            "bufferView" : 4,
            "componentType" : 5126,
            "count" : 3574,
            "max" : [
                1.9442464113235474,
                8.910653114318848,
                12.647790908813477
            ],
            "min" : [
                -3.2804861068725586,
                -2.583266019821167,
                -3.33362078666687
            ],
            "type" : "VEC3"
        },
        {
            "bufferView" : 5,
            "componentType" : 5126,
            "count" : 3574,
            "type" : "VEC3"
        },
        {
            "bufferView" : 6,
            "componentType" : 5126,
            "count" : 3574,
            "type" : "VEC2"
        },
        {
            "bufferView" : 7,
            "componentType" : 5123,
            "count" : 16104,
            "type" : "SCALAR"
        }
    ],
    "bufferViews" : [
        {
            "buffer" : 0,
            "byteLength" : 619800,
            "byteOffset" : 0
        },
        {
            "buffer" : 0,
            "byteLength" : 619800,
            "byteOffset" : 619800
        },
        {
            "buffer" : 0,
            "byteLength" : 413200,
            "byteOffset" : 1239600
        },
        {
            "buffer" : 0,
            "byteLength" : 454320,
            "byteOffset" : 1652800
        },
        {
            "buffer" : 0,
            "byteLength" : 42888,
            "byteOffset" : 2107120
        },
        {
            "buffer" : 0,
            "byteLength" : 42888,
            "byteOffset" : 2150008
        },
        {
            "buffer" : 0,
            "byteLength" : 28592,
            "byteOffset" : 2192896
        },
        {
            "buffer" : 0,
            "byteLength" : 32208,
            "byteOffset" : 2221488
        }
    ],
    "buffers" : [
        {
            "byteLength" : 2253696,
            "uri" : "data:application/octet-stream;base64,"
        }
    ]
}
