{
    "asset" : {
        "generator" : "Khronos glTF Blender I/O v3.2.40",
        "version" : "2.0"
    },
    "scene" : 0,
    "scenes" : [
        {
            "name" : "Scene",
            "nodes" : [
                0
            ]
        }
    ],
    "nodes" : [
        {
            "mesh" : 0,
            "name" : "Cube",
            "scale" : [
                1.6382532119750977,
                1.5872154235839844,
                2.2461624145507812
            ],
            "translation" : [
                0,
                1.591685175895691,
                0
            ]
        }
    ],
    "materials" : [
        {
            "doubleSided" : true,
            "name" : "Material.009",
            "pbrMetallicRoughness" : {
                "baseColorFactor" : [
                    0.6730745434761047,
                    0.051274314522743225,
                    0.06032431125640869,
                    1
                ],
                "metallicFactor" : 0.3486238121986389,
                "roughnessFactor" : 0.5642201900482178
            }
        },
        {
            "doubleSided" : true,
            "name" : "Material.001",
            "pbrMetallicRoughness" : {
                "baseColorFactor" : [
                    0.10686253756284714,
                    0.15590865910053253,
                    0.8000000715255737,
                    1
                ],
                "metallicFactor" : 0.35779815912246704,
                "roughnessFactor" : 0.6743119359016418
            }
        },
        {
            "doubleSided" : true,
            "name" : "Material.002",
            "pbrMetallicRoughness" : {
                "baseColorFactor" : [
                    0.21225571632385254,
                    0.28783005475997925,
                    1,
                    1
                ],
                "metallicFactor" : 0,
                "roughnessFactor" : 0.6146788597106934
            }
        },
        {
            "doubleSided" : true,
            "name" : "Material.004",
            "pbrMetallicRoughness" : {
                "baseColorFactor" : [
                    0.057747144252061844,
                    0.11540495604276657,
                    0.8000000715255737,
                    1
                ],
                "metallicFactor" : 0,
                "roughnessFactor" : 0.5
            }
        },
        {
            "doubleSided" : true,
            "name" : "Material.003",
            "pbrMetallicRoughness" : {
                "baseColorFactor" : [
                    0.14545051753520966,
                    0.29297521710395813,
                    1,
                    1
                ],
                "metallicFactor" : 0.35779815912246704,
                "roughnessFactor" : 0.6743119359016418
            }
        },
        {
            "doubleSided" : true,
            "name" : "Material.005",
            "pbrMetallicRoughness" : {
                "baseColorFactor" : [
                    0.33230888843536377,
                    0.5258991122245789,
                    1,
                    1
                ],
                "metallicFactor" : 0.22018349170684814,
                "roughnessFactor" : 0.5458715558052063
            }
        },
        {
            "doubleSided" : true,
            "name" : "Material.006",
            "pbrMetallicRoughness" : {
                "baseColorFactor" : [
                    0.25501900911331177,
                    0.2744557857513428,
                    0.8000000715255737,
                    1
                ],
                "metallicFactor" : 0,
                "roughnessFactor" : 0.5
            }
        },
        {
            "doubleSided" : true,
            "name" : "Material.008",
            "pbrMetallicRoughness" : {
                "baseColorFactor" : [
                    0.11274176090955734,
                    0.14134560525417328,
                    0.8000000715255737,
                    1
                ],
                "metallicFactor" : 0.1651376187801361,
                "roughnessFactor" : 0.5642201900482178
            }
        },
        {
            "doubleSided" : true,
            "name" : "Material.007",
            "pbrMetallicRoughness" : {
                "baseColorFactor" : [
                    0.17953915894031525,
                    0.28704261779785156,
                    0.8000000715255737,
                    1
                ],
                "metallicFactor" : 0.16513800621032715,
                "roughnessFactor" : 0.6009174585342407
            }
        }
    ],
    "meshes" : [
        {
            "name" : "Cube.001",
            "primitives" : [
                {
                    "attributes" : {
                        "POSITION" : 0,
                        "NORMAL" : 1,
                        "TEXCOORD_0" : 2
                    },
                    "indices" : 3,
                    "material" : 0
                },
                {
                    "attributes" : {
                        "POSITION" : 4,
                        "NORMAL" : 5,
                        "TEXCOORD_0" : 6
                    },
                    "indices" : 7,
                    "material" : 1
                },
                {
                    "attributes" : {
                        "POSITION" : 8,
                        "NORMAL" : 9,
                        "TEXCOORD_0" : 10
                    },
                    "indices" : 11,
                    "material" : 2
                },
                {
                    "attributes" : {
                        "POSITION" : 12,
                        "NORMAL" : 13,
                        "TEXCOORD_0" : 14
                    },
                    "indices" : 15,
                    "material" : 3
                },
                {
                    "attributes" : {
                        "POSITION" : 16,
                        "NORMAL" : 17,
                        "TEXCOORD_0" : 18
                    },
                    "indices" : 19,
                    "material" : 4
                },
                {
                    "attributes" : {
                        "POSITION" : 20,
                        "NORMAL" : 21,
                        "TEXCOORD_0" : 22
                    },
                    "indices" : 23,
                    "material" : 5
                },
                {
                    "attributes" : {
                        "POSITION" : 24,
                        "NORMAL" : 25,
                        "TEXCOORD_0" : 26
                    },
                    "indices" : 7,
                    "material" : 6
                },
                {
                    "attributes" : {
                        "POSITION" : 27,
                        "NORMAL" : 28,
                        "TEXCOORD_0" : 29
                    },
                    "indices" : 15,
                    "material" : 7
                },
                {
                    "attributes" : {
                        "POSITION" : 30,
                        "NORMAL" : 31,
                        "TEXCOORD_0" : 32
                    },
                    "indices" : 33,
                    "material" : 8
                }
            ]
        }
    ],
    "accessors" : [
        {
            "bufferView" : 0,
            "componentType" : 5126,
            "count" : 24,
            "max" : [
                1,
                1,
                1
            ],
            "min" : [
                -1,
                -1,
                -1
            ],
            "type" : "VEC3"
        },
        {
            "bufferView" : 1,
            "componentType" : 5126,
            "count" : 24,
            "type" : "VEC3"
        },
        {
            "bufferView" : 2,
            "componentType" : 5126,
            "count" : 24,
            "type" : "VEC2"
        },
        {
            "bufferView" : 3,
            "componentType" : 5123,
            "count" : 36,
            "type" : "SCALAR"
        },
        {
            "bufferView" : 4,
            "componentType" : 5126,
            "count" : 32,
            "max" : [
                -1.0194213390350342,
                0.08550288528203964,
                0.024541497230529785
            ],
            "min" : [
                -1.0215580463409424,
                -0.09850861877202988,
                -0.28179144859313965
            ],
            "type" : "VEC3"
        },
        {
            "bufferView" : 5,
            "componentType" : 5126,
            "count" : 32,
            "type" : "VEC3"
        },
        {
            "bufferView" : 6,
            "componentType" : 5126,
            "count" : 32,
            "type" : "VEC2"
        },
        {
            "bufferView" : 7,
            "componentType" : 5123,
            "count" : 90,
            "type" : "SCALAR"
        },
        {
            "bufferView" : 8,
            "componentType" : 5126,
            "count" : 38,
            "max" : [
                -1.0010859966278076,
                0.9111946225166321,
                1.0031079053878784
            ],
            "min" : [
                -1.0253252983093262,
                -0.9165952801704407,
                -0.997664213180542
            ],
            "type" : "VEC3"
        },
        {
            "bufferView" : 9,
            "componentType" : 5126,
            "count" : 38,
            "type" : "VEC3"
        },
        {
            "bufferView" : 10,
            "componentType" : 5126,
            "count" : 38,
            "type" : "VEC2"
        },
        {
            "bufferView" : 11,
            "componentType" : 5123,
            "count" : 108,
            "type" : "SCALAR"
        },
        {
            "bufferView" : 12,
            "componentType" : 5126,
            "count" : 64,
            "max" : [
                1.0080498456954956,
                0.17086194455623627,
                1.0091946125030518
            ],
            "min" : [
                -0.09262394905090332,
                -0.07663319259881973,
                -0.28529050946235657
            ],
            "type" : "VEC3"
        },
        {
            "bufferView" : 13,
            "componentType" : 5126,
            "count" : 64,
            "type" : "VEC3"
        },
        {
            "bufferView" : 14,
            "componentType" : 5126,
            "count" : 64,
            "type" : "VEC2"
        },
        {
            "bufferView" : 15,
            "componentType" : 5123,
            "count" : 180,
            "type" : "SCALAR"
        },
        {
            "bufferView" : 16,
            "componentType" : 5126,
            "count" : 230,
            "max" : [
                1.0106861591339111,
                1.016209602355957,
                1.011788010597229
            ],
            "min" : [
                -0.9784188270568848,
                -0.987589955329895,
                -1.0092337131500244
            ],
            "type" : "VEC3"
        },
        {
            "bufferView" : 17,
            "componentType" : 5126,
            "count" : 230,
            "type" : "VEC3"
        },
        {
            "bufferView" : 18,
            "componentType" : 5126,
            "count" : 230,
            "type" : "VEC2"
        },
        {
            "bufferView" : 19,
            "componentType" : 5123,
            "count" : 678,
            "type" : "SCALAR"
        },
        {
            "bufferView" : 20,
            "componentType" : 5126,
            "count" : 158,
            "max" : [
                1.0072156190872192,
                0.9626718163490295,
                -1.012156367301941
            ],
            "min" : [
                -0.9872965812683105,
                -0.8825136423110962,
                -1.0121647119522095
            ],
            "type" : "VEC3"
        },
        {
            "bufferView" : 21,
            "componentType" : 5126,
            "count" : 158,
            "type" : "VEC3"
        },
        {
            "bufferView" : 22,
            "componentType" : 5126,
            "count" : 158,
            "type" : "VEC2"
        },
        {
            "bufferView" : 23,
            "componentType" : 5123,
            "count" : 468,
            "type" : "SCALAR"
        },
        {
            "bufferView" : 24,
            "componentType" : 5126,
            "count" : 32,
            "max" : [
                0.2844626009464264,
                0.05472876876592636,
                -1.0148450136184692
            ],
            "min" : [
                0.034754786640405655,
                -0.11559882014989853,
                -1.0148450136184692
            ],
            "type" : "VEC3"
        },
        {
            "bufferView" : 25,
            "componentType" : 5126,
            "count" : 32,
            "type" : "VEC3"
        },
        {
            "bufferView" : 26,
            "componentType" : 5126,
            "count" : 32,
            "type" : "VEC2"
        },
        {
            "bufferView" : 27,
            "componentType" : 5126,
            "count" : 64,
            "max" : [
                0.3761187791824341,
                1.020645022392273,
                0.058250050991773605
            ],
            "min" : [
                0.07236604392528534,
                -1.0079885721206665,
                -0.10978323221206665
            ],
            "type" : "VEC3"
        },
        {
            "bufferView" : 28,
            "componentType" : 5126,
            "count" : 64,
            "type" : "VEC3"
        },
        {
            "bufferView" : 29,
            "componentType" : 5126,
            "count" : 64,
            "type" : "VEC2"
        },
        {
            "bufferView" : 30,
            "componentType" : 5126,
            "count" : 280,
            "max" : [
                1.0052262544631958,
                1.0175977945327759,
                0.7190387845039368
            ],
            "min" : [
                -0.9311085343360901,
                -1.0138593912124634,
                -0.8694239854812622
            ],
            "type" : "VEC3"
        },
        {
            "bufferView" : 31,
            "componentType" : 5126,
            "count" : 280,
            "type" : "VEC3"
        },
        {
            "bufferView" : 32,
            "componentType" : 5126,
            "count" : 280,
            "type" : "VEC2"
        },
        {
            "bufferView" : 33,
            "componentType" : 5123,
            "count" : 828,
            "type" : "SCALAR"
        }
    ],
    "bufferViews" : [
        {
            "buffer" : 0,
            "byteLength" : 288,
            "byteOffset" : 0
        },
        {
            "buffer" : 0,
            "byteLength" : 288,
            "byteOffset" : 288
        },
        {
            "buffer" : 0,
            "byteLength" : 192,
            "byteOffset" : 576
        },
        {
            "buffer" : 0,
            "byteLength" : 72,
            "byteOffset" : 768
        },
        {
            "buffer" : 0,
            "byteLength" : 384,
            "byteOffset" : 840
        },
        {
            "buffer" : 0,
            "byteLength" : 384,
            "byteOffset" : 1224
        },
        {
            "buffer" : 0,
            "byteLength" : 256,
            "byteOffset" : 1608
        },
        {
            "buffer" : 0,
            "byteLength" : 180,
            "byteOffset" : 1864
        },
        {
            "buffer" : 0,
            "byteLength" : 456,
            "byteOffset" : 2044
        },
        {
            "buffer" : 0,
            "byteLength" : 456,
            "byteOffset" : 2500
        },
        {
            "buffer" : 0,
            "byteLength" : 304,
            "byteOffset" : 2956
        },
        {
            "buffer" : 0,
            "byteLength" : 216,
            "byteOffset" : 3260
        },
        {
            "buffer" : 0,
            "byteLength" : 768,
            "byteOffset" : 3476
        },
        {
            "buffer" : 0,
            "byteLength" : 768,
            "byteOffset" : 4244
        },
        {
            "buffer" : 0,
            "byteLength" : 512,
            "byteOffset" : 5012
        },
        {
            "buffer" : 0,
            "byteLength" : 360,
            "byteOffset" : 5524
        },
        {
            "buffer" : 0,
            "byteLength" : 2760,
            "byteOffset" : 5884
        },
        {
            "buffer" : 0,
            "byteLength" : 2760,
            "byteOffset" : 8644
        },
        {
            "buffer" : 0,
            "byteLength" : 1840,
            "byteOffset" : 11404
        },
        {
            "buffer" : 0,
            "byteLength" : 1356,
            "byteOffset" : 13244
        },
        {
            "buffer" : 0,
            "byteLength" : 1896,
            "byteOffset" : 14600
        },
        {
            "buffer" : 0,
            "byteLength" : 1896,
            "byteOffset" : 16496
        },
        {
            "buffer" : 0,
            "byteLength" : 1264,
            "byteOffset" : 18392
        },
        {
            "buffer" : 0,
            "byteLength" : 936,
            "byteOffset" : 19656
        },
        {
            "buffer" : 0,
            "byteLength" : 384,
            "byteOffset" : 20592
        },
        {
            "buffer" : 0,
            "byteLength" : 384,
            "byteOffset" : 20976
        },
        {
            "buffer" : 0,
            "byteLength" : 256,
            "byteOffset" : 21360
        },
        {
            "buffer" : 0,
            "byteLength" : 768,
            "byteOffset" : 21616
        },
        {
            "buffer" : 0,
            "byteLength" : 768,
            "byteOffset" : 22384
        },
        {
            "buffer" : 0,
            "byteLength" : 512,
            "byteOffset" : 23152
        },
        {
            "buffer" : 0,
            "byteLength" : 3360,
            "byteOffset" : 23664
        },
        {
            "buffer" : 0,
            "byteLength" : 3360,
            "byteOffset" : 27024
        },
        {
            "buffer" : 0,
            "byteLength" : 2240,
            "byteOffset" : 30384
        },
        {
            "buffer" : 0,
            "byteLength" : 1656,
            "byteOffset" : 32624
        }
    ],
    "buffers" : [
        {
            "byteLength" : 34280,
            "uri" : "data:application/octet-stream;base64,"
        }
    ]
}
